<svg width="16" height="16" viewBox="0 0 16 16" fill="none" xmlns="http://www.w3.org/2000/svg">
<g id="heart">
<path id="Vector" d="M13.8931 3.07321C13.5526 2.73254 13.1483 2.46231 12.7033 2.27793C12.2583 2.09356 11.7814 1.99866 11.2998 1.99866C10.8181 1.99866 10.3412 2.09356 9.89618 2.27793C9.45121 2.46231 9.04692 2.73254 8.70642 3.07321L7.99975 3.77987L7.29309 3.07321C6.60529 2.38541 5.67244 1.99901 4.69975 1.99901C3.72706 1.99901 2.79421 2.38541 2.10642 3.07321C1.41863 3.761 1.03223 4.69385 1.03223 5.66654C1.03223 6.63923 1.41863 7.57208 2.10642 8.25987L2.81309 8.96654L7.99975 14.1532L13.1864 8.96654L13.8931 8.25987C14.2337 7.91937 14.504 7.51508 14.6884 7.07011C14.8727 6.62514 14.9676 6.1482 14.9676 5.66654C14.9676 5.18488 14.8727 4.70794 14.6884 4.26297C14.504 3.818 14.2337 3.41371 13.8931 3.07321Z" stroke="#050505" stroke-width="1.3" stroke-linecap="round" stroke-linejoin="round"/>
</g>
</svg>
